<?xml version="1.0" encoding="utf-8"?>
<!-- Generator: Adobe Illustrator 17.1.0, SVG Export Plug-In . SVG Version: 6.00 Build 0)  -->
<!DOCTYPE svg PUBLIC "-//W3C//DTD SVG 1.1//EN" "http://www.w3.org/Graphics/SVG/1.1/DTD/svg11.dtd">
<svg version="1.1" xmlns="http://www.w3.org/2000/svg" xmlns:xlink="http://www.w3.org/1999/xlink" x="0px" y="0px"
	 viewBox="0 0 256 256" enable-background="new 0 0 256 256" xml:space="preserve">
<g id="Lager_1">
</g>
<g id="Lager_3" display="none">
	<path display="inline" fill="#504F4E" d="M128,4.2C59.6,4.2,4.2,59.6,4.2,128S59.6,251.8,128,251.8S251.8,196.4,251.8,128
		S196.4,4.2,128,4.2z M187.9,163.2H68.1c-7.4,0-12-8-8.3-14.4l59.9-69.1c3.7-6.4,13-6.4,16.7,0l59.9,69.1
		C200,155.2,195.3,163.2,187.9,163.2z"/>
</g>
<g id="Lager_1_kopia">
</g>
<g id="Lager_3_kopia">
	<path fill="#504F4E" d="M128,4.2C59.6,4.2,4.2,59.6,4.2,128S59.6,251.8,128,251.8S251.8,196.4,251.8,128S196.4,4.2,128,4.2z
		 M196.3,109.3l-59.9,69.1c-3.7,6.4-13,6.4-16.7,0l-59.9-69.1c-3.7-6.4,0.9-14.4,8.3-14.4h119.8C195.3,94.8,200,102.8,196.3,109.3z"
		/>
</g>
</svg>
