<?xml version="1.0" encoding="utf-8"?>
<!-- Generator: Adobe Illustrator 17.1.0, SVG Export Plug-In . SVG Version: 6.00 Build 0)  -->
<!DOCTYPE svg PUBLIC "-//W3C//DTD SVG 1.1//EN" "http://www.w3.org/Graphics/SVG/1.1/DTD/svg11.dtd">
<svg version="1.1" id="Lager_1" xmlns="http://www.w3.org/2000/svg" xmlns:xlink="http://www.w3.org/1999/xlink" x="0px" y="0px"
	 viewBox="0 0 334 194" enable-background="new 0 0 334 194" xml:space="preserve">
<g>
	<g>
		<path fill="#E2231A" d="M59.6,3h8.6l38.2,85.7H93.9L82.6,63.4H46.2L35.6,88.7H23L59.6,3z M77.6,52.5L63.8,21.7L51.1,52.5H77.6z"/>
		<path fill="#E2231A" d="M140.8,88.7H112V3.4h22.3c7,0,12.5,0.9,16.5,2.8c3.9,1.9,7,4.5,9,7.8c2.1,3.3,3.1,7.1,3.1,11.5
			c0,8.4-4.3,14.4-13,18c6.2,1.2,11.2,3.7,14.9,7.7c3.7,3.9,5.5,8.7,5.5,14.1c0,4.4-1.1,8.2-3.4,11.6c-2.2,3.4-5.5,6.2-9.9,8.4
			C152.7,87.6,147.3,88.7,140.8,88.7z M134.6,14.3h-10.5v25.6h8.1c6.5,0,11.1-1.2,13.9-3.7c2.7-2.5,4.1-5.7,4.1-9.6
			C150.3,18.4,145.1,14.3,134.6,14.3z M135.6,50.8h-11.4v27h12c6.7,0,11.2-0.5,13.6-1.6c2.4-1,4.3-2.7,5.7-4.8
			c1.4-2.2,2.2-4.6,2.2-7.1c0-2.6-0.8-5-2.3-7.1c-1.5-2.2-3.7-3.8-6.5-4.8C146.1,51.3,141.6,50.8,135.6,50.8z"/>
		<path fill="#E2231A" d="M252.9,68.9v13.4c-8.9,4.9-19.3,7.3-31,7.3c-9.5,0-17.6-1.9-24.2-5.7c-6.6-3.8-11.9-9.1-15.7-15.8
			c-3.9-6.7-5.8-14-5.8-21.8c0-12.4,4.4-22.8,13.3-31.3c8.8-8.5,19.8-12.7,32.7-12.7c8.9,0,18.9,2.3,29.8,7v13.1
			c-10-5.7-19.7-8.5-29.2-8.5c-9.8,0-17.9,3.1-24.3,9.2c-6.4,6.2-9.7,13.9-9.7,23.1c0,9.4,3.2,17,9.5,23.1c6.3,6,14.5,9,24.3,9
			C232.9,78.4,243,75.2,252.9,68.9z"/>
	</g>
	<g>
		<path fill="none" d="M120.8,109.3c-3,3.5-5.4,15.2-6.8,28.4l0.2,0.2C117.9,129,120.6,116.5,120.8,109.3z"/>
		<path fill="none" d="M78.4,167c0.2,0.6,0.8,2.8,1.8,2.3c1.3-0.7,3.6-0.7,13.9-27.5l-0.2-0.2C78.4,153.1,77.5,160.9,78.4,167z"/>
		<path fill="none" d="M141.9,106.1c-3,3.5-5.4,15.2-6.8,28.4l0.2,0.2C139.1,125.9,141.7,113.4,141.9,106.1z"/>
		<path fill="none" d="M270.7,138.7c0.2,0.6,0.8,2.8,1.8,2.3c1.3-0.7,3.6-0.7,13.9-27.5l-0.2-0.2
			C270.7,124.7,269.8,132.6,270.7,138.7z"/>
		<path fill="#E2231A" d="M36.2,141.8c-20.9-5.1-20.1-6.1-20.3-7.9c-0.3-2.9,5.8-15.5,23.8-19.3l0.2,0.2c-3.1,5.1-3.9,9.2-3.9,9.4
			c0.2,1.2,0.7,1.8,1.4,1.7c0.6-0.1,1.2-0.9,1.6-1.5c2.2-3.9,2.7-4.6,5.5-7c3.7-3.5,5.2-5.8,3.8-15c-0.4-2.5-0.7-3.4-2.4-3.8
			c-3.1-0.7-6.2-0.9-9.1-0.4c-15.4,2.3-26.5,15.9-27.7,22.5c-0.6,3.5-0.4,12.7,0.2,16.8c1.1,7.4,5.1,8.9,8.7,9.3
			c3.5,0.5,23.8,2.6,24.7,8.9c0.3,2-4.7,15.7-30.1,17.8l0-0.2c0.3-0.8,0.6-1.5,0.9-2c0.4-0.6,1-1.3,0.9-2.5
			c-0.1-0.7-0.3-0.8-0.7-0.8c-1.1,0.2-4.9,3.1-5.5,4.5c-0.9,2-2.4,8.9-2,11.5c1.1,7.2,9.7,5.9,12.4,5.5c10.2-1.5,34.2-9.1,30.5-33.7
			C48,149.8,43.8,143.8,36.2,141.8z"/>
		<path fill="#E2231A" d="M84.4,121.6c2.7-0.4,3.2-7.2,2.9-10.5c-0.3-3.5-2.6-3.7-4.2-3.8c-3.7-0.5-4.1,8.1-3.8,10.2
			C79.6,120.9,82.7,121.8,84.4,121.6z"/>
		<path fill="#E2231A" d="M97.8,119.6c2.7-0.4,3.2-7.2,2.9-10.5c-0.3-3.5-2.6-3.7-4.2-3.8c-3.7-0.5-4.1,8.1-3.8,10.2
			C93,118.9,96.1,119.9,97.8,119.6z"/>
		<path fill="#E2231A" d="M195.5,115.5c3-0.4,4.7-6.9,4-11.8c-0.3-2.2-1.6-3.7-2.9-3.5c-2.7,0.4-5.5,5.4-4.7,10.4
			C192.3,113.5,193.8,115.7,195.5,115.5z"/>
		<path fill="#E2231A" d="M326.4,119.3c-1.9,3.4-5.1,12.1-8.2,12.6c-1.1,0.2-2.4-1.2-2.7-3.1c-0.7-4.9,1.8-11.5,3.4-14.9
			c1.3-2.6,2.3-4.6,1.8-8.5c-0.5-2.2-1.3-4.1-2.7-6.3c-0.9-1.4-4.6,0.7-11,3.3c0.1-1.2,0.2-2.3,0-3.5c-0.2-1.1-0.9-2-1.6-1.9
			c-1.7,0.3-7.6,10.2-6.3,19.1c0.4,2.6,1,3.5,2.5,3.6c-0.6,2.5-1.3,4.9-2.2,7.1c-2.3,4-4.9,9.2-7.5,9.6c-1.1,0.2-2.3-0.5-2.6-2.6
			c-0.9-5.8,4-15.4,3.4-19.3c-0.4-2.7-1.3-4-2.8-4.8c0.6-0.5,2.2-2,2-3.5c-0.2-1.5-2.2-5.9-5.5-5.3c-7.4,1.4-21.3,16.9-21.8,31.3
			l-6.8,11.7l-0.2-0.2l2.7-18.1c0.3-1.7,0.8-4.7,0.6-6.5c-0.3-2.1-2.2-6.1-3.6-5.9c-1.1,0.2-1.7,2.4-2.2,3.9l-5.4,15.7
			c-1.9,5.5-5.8,9.1-7.8,9c-0.6,0.1-1.1-0.1-1.3-1.1c-2-8.9,2.7-13.2,6.6-18l6.9-8.9c0.8-1.2,1.9-3.2,1.6-5.4
			c-0.4-2.7-3.2-2.8-4.2-2.5c-4.3,1.3-13.7,11.5-16.1,23.8l-3.8,8c-1,2-3.5,6.8-5.2,7.1c-0.7,0.1-1.4-0.9-1.6-2
			c-1.3-8.5,6-19.2,5.3-24c-0.6-2.6-1.3-4.7-2-6.5c-0.7-1.7-1.2-2.2-1.5-2.2c-2,0.3-12.8,17.4-16.6,30.9c-0.2,0.7-0.7,1.9-1.2,1.9
			c-0.4,0.1-0.9-0.5-1-1.2c-0.4-3,6.6-16.8,5.9-21.6c-0.1-0.7,0-2.5-4.3-2.2c-1.2,0.2-1.8,0.4-2.5,1.9c-2.2,4.5-4.1,12-4.6,19
			c-2.3,4.4-5.7,11.9-9.1,12.4c-3.2,0.5-4.7-2.1-4.9-7.2c2.4-4,7.8-16.1,6.9-22.3c-0.4-2.7-2.4-3.2-3.6-3c-3.1,0.5-7.5,9.1-8.7,19.7
			l-3.5,7c-1,2-3.5,6.8-5.2,7.1c-0.7,0.1-1.4-0.9-1.6-2c-1.3-8.5,6-19.2,5.3-24.1c-0.6-2.6-1.3-4.7-2-6.5c-0.7-1.7-1.2-2.2-1.5-2.2
			c-2,0.3-12.8,17.4-16.6,30.9c-0.2,0.7-0.7,1.9-1.2,1.9c-0.4,0.1-0.9-0.5-1-1.2c-0.4-3,6.6-16.8,5.9-21.6c-0.1-0.7,0-2.5-4.3-2.2
			c-1.2,0.2-1.8,0.4-2.5,1.9c-2.1,4.4-4,11.8-4.6,18.7c-2.2,4.9-6.4,13.4-10.2,14c-1.9,0.3-3.3-2-4.3-4.8c-0.8-2.9-1.1-6.4-0.8-8.6
			c11.5-28.2,11.7-39.4,10.5-51.2c-0.2-1.6-0.9-4.5-2.1-4.4c-2.3,0.3-7.3,12.8-11.5,27.2c-2.6,8.8-3.8,20.4-3,31.5
			c-2.2,5-6.3,12.9-10,13.4c-1.9,0.3-3.3-2-4.3-4.8c-0.8-2.9-1.1-6.4-0.8-8.6c11.5-28.2,11.7-39.4,10.5-51.2
			c-0.2-1.6-0.9-4.5-2.1-4.4c-2.3,0.3-7.3,12.8-11.5,27.2c-2.7,9-3.9,20.9-3,32.2c-2.5,4.1-5.5,10.7-8.4,11.2
			c-1.1,0.2-2.3-0.5-2.6-2.6c-0.9-5.8,4-15.4,3.4-19.3c-0.4-2.7-1.3-4-2.8-4.8c0.6-0.5,2.2-2,2-3.5c-0.2-1.5-2.2-5.9-5.5-5.3
			c-7.3,1.4-21,16.5-21.8,30.8c-4.9,8.4-6.7,11.8-8.8,12.1c-1.6,0.2-2.4-1.3-2.8-4c-1.1-7.4,1.4-18.2,3-24c7.9-0.3,7.8-4.9,9.4-17.2
			l-4.5,0c0.4-1.8,1.9-6.2,1.6-8.4c-0.3-2-1.7-2.2-2.6-2c-4.1,0.6-4.8,6.6-6.2,12c-7.5,1.6-7.7,3.7-9.9,15.1l-0.4,2.3
			c3.6-1.5,2.3-0.8,6.6-1.5c-1.5,8.2-4.4,15.1-7.8,21.4l1.5,4.6l2.8-5.6l0.2,0.2c-0.4,3.7-0.6,8.6,0,12.6c0.7,5,2.9,8,5.7,7.6
			c5-0.7,9.7-10.8,13-18.3c1.8,5.8,6.1,11.6,7.8,11.3c1.6-0.2,5.2-7.3,6.3-9.4l5.1-10.1l0.2,0.2c-0.4,3.5-1.2,10.3-0.6,14.2
			c0.5,3.6,2,6.4,4.4,6.1c3.2-0.5,9.7-12.7,12.4-19.8c1.1,7.2,3.5,15.6,8.6,14.8c5.3-0.8,9.6-11,12.5-18.7c0,0.1,0,0.3,0.1,0.4
			c1.1,7.3,3.5,15.9,8.6,15.2c5-0.7,9.2-10.1,12.1-17.6c0.1,0.7,0.1,1.3,0.3,1.9c0.7,4.2,2.6,11.9,5.7,11.4c1.9-0.3,3.6-6.7,4.3-9.2
			c2.1-7.6,4.8-14.6,8.1-20.5l0.2,0.2c-1.4,6-4,14.8-2.9,22.2c0.6,4.2,2.5,8,5.2,7.6c4.4-0.6,8.6-12.4,11.6-19.9c0.1,1,0.2,2,0.3,3
			c0.9,6.3,4.1,14.4,8.2,13.8c4.7-0.7,8.8-10.1,11.2-17.3c0,0.4,0.1,0.8,0.2,1.1c0.7,4.2,2.6,11.9,5.7,11.4c1.9-0.3,3.6-6.7,4.3-9.2
			c2.1-7.6,4.8-14.6,8.1-20.5l0.2,0.2c-1.4,6-4,14.8-2.9,22.2c0.6,4.2,2.5,8,5.2,7.6c4.5-0.7,8.9-13.2,11.9-20.6c0,0,0,0,0,0
			c0.8,5.4,3.5,14.3,7.4,13.7c3.9-0.6,9.6-12.9,11.4-18.2l0.2,0.2l-2.4,17.7c-3.1,5.5-11.6,22.7-10.3,31.6c0.2,1.6,1.1,2.9,2.1,2.7
			c2.7-0.4,7.8-9.2,12.1-31l9.6-17.4c1.7,5.9,6.1,12.1,7.9,11.8c1.6-0.2,5.2-7.3,6.3-9.4l5.1-10.1l0.2,0.2
			c-0.4,3.5-1.2,10.3-0.6,14.2c0.5,3.6,2,6.4,4.4,6.1c3.2-0.5,10.9-15.6,13.5-22.8c1.3-2.9,2.5-5.9,3.4-10.1l6.9-3.9l0.2,0.2
			c-1.9,6.4-4.6,13.5-3.4,21.9c0.7,4.7,3.2,9.3,6.2,8.8c4-0.6,10.1-15.5,12-21.2L326.4,119.3z M80.1,169.2c-1,0.5-1.6-1.7-1.8-2.3
			c-0.9-6.1,0-13.9,15.5-25.4l0.2,0.2C83.7,168.6,81.5,168.5,80.1,169.2z M120.8,109.3c-0.2,7.2-2.9,19.8-6.7,28.7l-0.2-0.2
			C115.4,124.5,117.8,112.7,120.8,109.3z M141.9,106.1c-0.2,7.2-2.9,19.8-6.7,28.7l-0.2-0.2C136.5,121.4,138.9,109.6,141.9,106.1z
			 M272.5,140.9c-1,0.5-1.6-1.7-1.8-2.3c-0.9-6.1,0-13.9,15.5-25.4l0.2,0.2C276,140.3,273.8,140.2,272.5,140.9z"/>
	</g>
</g>
</svg>
